<?xml version="1.0" encoding="iso-8859-1"?>
<!-- Generator: Adobe Illustrator 19.0.0, SVG Export Plug-In . SVG Version: 6.00 Build 0)  -->
<svg version="1.1" id="Capa_1" xmlns="http://www.w3.org/2000/svg" xmlns:xlink="http://www.w3.org/1999/xlink" x="0px" y="0px"
	 viewBox="0 0 470.131 470.131" style="enable-background:new 0 0 470.131 470.131;" xml:space="preserve">
<g>
	<path d="M467.863,99.239L370.928,2.2c-1.407-1.408-3.315-2.2-5.306-2.2c-1.99,0-3.899,0.791-5.306,2.199l-92.84,92.934
		c-5.152,5.157-9.439,14.529-9.973,21.799l-3.976,54.159c-0.271,3.696-3.005,9.669-5.626,12.291l-98.204,98.217l-0.214-0.214
		c-1.406-1.407-3.314-2.197-5.303-2.197s-3.897,0.79-5.303,2.197L10.397,409.871c-13.764,13.765-13.764,36.162,0,49.926
		c6.664,6.664,15.526,10.334,24.956,10.334s18.297-3.67,24.97-10.335L188.8,331.311c2.929-2.929,2.929-7.678,0-10.606
		l-28.498-28.499l98.206-98.219c5.155-5.156,9.445-14.527,9.979-21.798l3.976-54.159c0.271-3.698,3.005-9.674,5.625-12.296
		l87.534-87.622l86.334,86.427l-87.499,87.586c-2.618,2.621-8.587,5.355-12.281,5.625l-54.23,3.971
		c-7.271,0.532-16.643,4.822-21.799,9.979l-82.26,82.271c-2.929,2.929-2.928,7.678,0.001,10.606
		c1.464,1.464,3.383,2.196,5.303,2.196s3.839-0.732,5.304-2.197l82.26-82.271c2.62-2.62,8.591-5.354,12.287-5.624l54.23-3.971
		c7.273-0.533,16.644-4.825,21.798-9.984l92.794-92.887C470.788,106.912,470.788,102.167,467.863,99.239z M49.718,449.186
		c-3.838,3.833-8.94,5.945-14.366,5.945c-5.423,0-10.519-2.11-14.349-5.94c-7.916-7.917-7.916-20.797,0-28.713l123.175-123.182
		l28.712,28.712L49.718,449.186z"/>
	<path d="M339.393,175.408c1.228,2.827,3.986,4.516,6.884,4.516c0.997,0,2.01-0.2,2.982-0.622
		c1.329-0.577,1.329-0.577,13.419-12.659l59.795-59.784c2.929-2.929,2.928-7.678,0-10.607c-2.93-2.929-7.677-2.928-10.607,0
		c-23.56,23.562-68.111,68.109-70.718,70.69C338.897,169.048,338.096,172.419,339.393,175.408z"/>
	<path d="M137.315,322.261c-2.925,2.926-2.925,7.686,0,10.612c2.926,2.926,7.686,2.926,10.611,0c2.926-2.926,2.926-7.686,0-10.612
		C145.001,319.335,140.24,319.335,137.315,322.261z"/>
	<path d="M106.791,352.785c-2.925,2.926-2.925,7.686,0,10.612c2.926,2.926,7.686,2.926,10.611,0c2.925-2.926,2.925-7.686,0-10.612
		C114.477,349.86,109.717,349.86,106.791,352.785z"/>
	<path d="M363.32,47.659l-59.737,59.876c-12.064,12.099-12.064,12.099-12.64,13.417c-1.657,3.796,0.076,8.217,3.873,9.875
		c0.977,0.426,1.995,0.628,2.997,0.628c2.07,0,4.071-0.862,5.492-2.387c2.582-2.615,47.097-47.229,70.632-70.813
		c2.926-2.932,2.921-7.681-0.011-10.606C370.994,44.721,366.246,44.727,363.32,47.659z"/>
	<path d="M387.598,71.936l-59.738,59.876c-12.064,12.099-12.064,12.099-12.64,13.417c-1.657,3.796,0.076,8.217,3.873,9.875
		c0.977,0.426,1.995,0.628,2.997,0.628c2.07,0,4.071-0.862,5.492-2.387c2.582-2.615,47.097-47.229,70.633-70.813
		c2.926-2.932,2.921-7.681-0.011-10.606C395.271,68.998,390.523,69.004,387.598,71.936z"/>
</g>
<g>
</g>
<g>
</g>
<g>
</g>
<g>
</g>
<g>
</g>
<g>
</g>
<g>
</g>
<g>
</g>
<g>
</g>
<g>
</g>
<g>
</g>
<g>
</g>
<g>
</g>
<g>
</g>
<g>
</g>
</svg>
