<?xml version="1.0" encoding="iso-8859-1"?>
<!-- Generator: Adobe Illustrator 18.1.1, SVG Export Plug-In . SVG Version: 6.00 Build 0)  -->
<svg version="1.1" id="Capa_1" xmlns="http://www.w3.org/2000/svg" xmlns:xlink="http://www.w3.org/1999/xlink" x="0px" y="0px"
	 viewBox="0 0 40.267 40.267" style="enable-background:new 0 0 40.267 40.267;" xml:space="preserve">
<g>
	<g id="b152_cob">
		<path style="fill:#030104;" d="M16.943,2.482c0.37,0,1.485,0,1.854,0c0.371,0,0.324-0.355,0.324-0.355V0.354
			c0,0,0.035-0.354-0.324-0.354c-0.359,0-1.332,0-1.756,0c-0.425,0-0.398,0.385-0.398,0.385v1.693
			C16.643,2.078,16.608,2.482,16.943,2.482z"/>
		<path style="fill:#030104;" d="M20.432,2.482c0.369,0,1.482,0,1.855,0c0.369,0,0.324-0.355,0.324-0.355V0.354
			c0,0,0.035-0.354-0.324-0.354c-0.359,0-1.334,0-1.759,0c-0.425,0-0.397,0.385-0.397,0.385v1.693
			C20.131,2.078,20.1,2.482,20.432,2.482z"/>
		<path style="fill:#030104;" d="M16.943,5.605c0.37,0,1.485,0,1.854,0c0.371,0,0.324-0.35,0.324-0.35V3.482
			c0,0,0.035-0.354-0.324-0.354c-0.359,0-1.332,0-1.756,0c-0.426,0-0.398,0.383-0.398,0.383v1.693
			C16.643,5.205,16.608,5.605,16.943,5.605z"/>
		<path style="fill:#030104;" d="M20.432,5.605c0.369,0,1.482,0,1.855,0c0.369,0,0.324-0.35,0.324-0.35V3.482
			c0,0,0.035-0.354-0.324-0.354c-0.359,0-1.334,0-1.759,0c-0.425,0-0.397,0.383-0.397,0.383v1.693
			C20.131,5.205,20.1,5.605,20.432,5.605z"/>
		<path style="fill:#030104;" d="M16.943,8.695c0.37,0,1.485,0,1.854,0c0.371,0,0.324-0.354,0.324-0.354V6.57
			c0,0,0.035-0.352-0.324-0.352c-0.359,0-1.332,0-1.756,0c-0.426,0-0.398,0.383-0.398,0.383v1.693
			C16.643,8.295,16.608,8.695,16.943,8.695z"/>
		<path style="fill:#030104;" d="M20.432,8.695c0.369,0,1.482,0,1.855,0c0.369,0,0.324-0.354,0.324-0.354V6.57
			c0,0,0.035-0.352-0.324-0.352c-0.359,0-1.334,0-1.759,0c-0.425,0-0.397,0.383-0.397,0.383v1.693
			C20.131,8.295,20.1,8.695,20.432,8.695z"/>
		<path style="fill:#030104;" d="M19.121,11.471V9.695c0,0,0.035-0.35-0.324-0.35c-0.359,0-1.332,0-1.756,0
			c-0.426,0-0.398,0.387-0.398,0.387v1.689c0,0-0.008,0.109,0.029,0.211c0.045,0.055,0.091,0.107,0.135,0.158
			c0.037,0.021,0.082,0.035,0.136,0.035c0.37,0,1.485,0,1.854,0C19.168,11.826,19.121,11.471,19.121,11.471z"/>
		<path style="fill:#030104;" d="M20.432,11.826c0.332,0,1.262,0,1.717,0c0.149-0.201,0.305-0.408,0.463-0.607V9.695
			c0,0,0.035-0.35-0.324-0.35c-0.359,0-1.334,0-1.759,0c-0.425,0-0.397,0.387-0.397,0.387v1.689
			C20.131,11.422,20.1,11.826,20.432,11.826z"/>
		<path style="fill:#030104;" d="M23.692,5.605c0.369,0,1.482,0,1.855,0c0.369,0,0.324-0.35,0.324-0.35V3.482
			c0,0,0.035-0.354-0.324-0.354s-1.334,0-1.758,0c-0.424,0-0.394,0.384-0.394,0.384v1.693C23.395,5.205,23.357,5.605,23.692,5.605z"
			/>
		<path style="fill:#030104;" d="M23.692,8.734c0.242,0,0.806,0,1.27,0c0.292-0.26,0.594-0.514,0.91-0.764V6.611
			c0,0,0.035-0.355-0.324-0.355s-1.334,0-1.758,0c-0.424,0-0.395,0.385-0.395,0.385v1.691C23.395,8.332,23.357,8.734,23.692,8.734z"
			/>
		<path style="fill:#030104;" d="M24.303,9.346c-0.201,0-0.383,0-0.514,0c-0.424,0-0.395,0.387-0.395,0.387v0.555
			C23.681,9.969,23.985,9.656,24.303,9.346z"/>
		<path style="fill:#030104;" d="M13.569,5.662c0.371,0,1.483,0,1.855,0c0.371,0,0.323-0.354,0.323-0.354v-1.77
			c0,0,0.036-0.354-0.323-0.354c-0.361,0-1.336,0-1.758,0c-0.426,0-0.396,0.385-0.396,0.385V5.26
			C13.27,5.262,13.235,5.662,13.569,5.662z"/>
		<path style="fill:#030104;" d="M15.747,8.436v-1.77c0,0,0.036-0.354-0.323-0.354c-0.361,0-1.336,0-1.758,0
			c-0.426,0-0.396,0.387-0.396,0.387v1.689c0,0-0.003,0.033,0.002,0.08c0.146,0.108,0.295,0.212,0.437,0.325
			c0.456,0,1.381,0,1.715,0C15.795,8.793,15.747,8.436,15.747,8.436z"/>
		<path style="fill:#030104;" d="M15.424,9.404c-0.2,0-0.588,0-0.965,0c0.457,0.389,0.885,0.793,1.288,1.209V9.754
			C15.747,9.754,15.784,9.404,15.424,9.404z"/>
		<path style="fill:#030104;" d="M18.797,12.512c-0.284,0-0.949,0-1.426,0c0.6,0.797,1.121,1.619,1.574,2.451
			c0.205-0.082,0.176-0.326,0.176-0.326v-1.771C19.121,12.865,19.157,12.512,18.797,12.512z"/>
		<path style="fill:#030104;" d="M20.282,14.949c0.396-0.822,0.857-1.639,1.389-2.438c-0.407,0-0.88,0-1.142,0
			c-0.425,0-0.397,0.385-0.397,0.385v1.693C20.131,14.59,20.113,14.848,20.282,14.949z"/>
		<path style="fill:#030104;" d="M31.025,25.537c-0.719,2.951-1.9,5.025-3.207,6.498c1.028-2.191,0.86-3.973,0.86-3.973
			c-0.871,3.57-2.756,5.229-4.3,5.998c10.03-17.027,4.017-26.578,4.017-26.578c-0.885,0.516-1.693,1.072-2.436,1.658
			c-0.318,0.248-0.619,0.504-0.913,0.764c0.01,0,0.021,0,0.03,0c-0.307,0.268-0.598,0.525-0.688,0.611
			c-0.318,0.307-0.621,0.623-0.91,0.941c-0.273,0.305-0.532,0.615-0.781,0.93c-0.16,0.201-0.313,0.406-0.463,0.607
			c-0.166,0.229-0.325,0.457-0.479,0.686c-0.531,0.801-0.994,1.615-1.389,2.438c-0.23,0.477-0.438,0.957-0.629,1.436
			c-0.213-0.477-0.451-0.949-0.707-1.422c-0.453-0.832-0.975-1.65-1.574-2.451c-0.182-0.238-0.368-0.48-0.564-0.719
			c-0.043-0.053-0.09-0.104-0.135-0.156c-0.291-0.346-0.6-0.688-0.924-1.021c-0.404-0.416-0.832-0.82-1.291-1.211
			c-0.242-0.207-0.49-0.412-0.748-0.611c-0.141-0.112-0.29-0.218-0.438-0.325c-0.819-0.604-1.711-1.168-2.69-1.68
			c0,0-5.488,9.648,4.955,25.961c-1.488-0.824-3.211-2.486-4.033-5.855c0,0-0.164,1.781,0.859,3.973
			c-1.303-1.473-2.484-3.547-3.203-6.498c0,0-0.942,9.412,10.892,14.729c0.032-0.018,0.06-0.031,0.093-0.045
			c0.012,0.014,0.025,0.027,0.037,0.045l0.014-0.066C31.955,34.869,31.025,25.537,31.025,25.537z"/>
	</g>
</g>
<g>
</g>
<g>
</g>
<g>
</g>
<g>
</g>
<g>
</g>
<g>
</g>
<g>
</g>
<g>
</g>
<g>
</g>
<g>
</g>
<g>
</g>
<g>
</g>
<g>
</g>
<g>
</g>
<g>
</g>
</svg>
